<svg width="33" height="33" viewBox="0 0 33 33" fill="none" xmlns="http://www.w3.org/2000/svg">
<path d="M3.61488 29.4819H1.14545V27.3075H0.0515137V32.6986H1.14545V30.5087H3.61488V32.6986H4.70882V27.3075H3.61488V29.4819Z" fill="white"/>
<path d="M9.77661 30.3925C9.77661 31.2687 9.34119 31.7377 8.55097 31.7377C7.75605 31.7377 7.31928 31.2559 7.31928 30.3555V27.3109H6.22534V30.3932C6.22534 31.9091 7.06864 32.7793 8.53753 32.7793C10.0205 32.7793 10.8712 31.8936 10.8712 30.3488V27.3082H9.77728V30.3925H9.77661Z" fill="white"/>
<path d="M22.4181 31.014L21.1938 27.3062H20.3008L19.0772 31.014L17.8865 27.3095H16.7227L18.6014 32.6986H19.5072L20.7329 29.1587L21.9585 32.6986H22.8717L24.7458 27.3095H23.6122L22.4181 31.014Z" fill="white"/>
<path d="M26.7064 30.3784H28.6961V29.396H26.7064V28.2933H29.5945V27.3109H25.6279V32.6946H29.6979V31.7122H26.7064V30.3784Z" fill="white"/>
<path d="M32.0814 27.3069H31.0022V32.6912H32.0814V27.3069Z" fill="white"/>
<path d="M15.4989 31.5731L15.9833 32.6953H17.1304L14.7644 27.3069H13.8002L11.4248 32.6953H12.5409L13.0321 31.5731H15.4989ZM14.2631 28.6716L15.0923 30.6008H13.4393L14.2631 28.6716Z" fill="white"/>
<path d="M29.7626 9.57129C29.94 6.81158 27.1622 4.25682 27.1622 4.25682C27.1622 4.25682 22.0103 10.4959 18.2561 18.691C18.2359 18.734 18.2292 18.8059 18.2736 18.8436C18.3045 18.8698 18.3603 18.8866 18.418 18.8584C19.8251 18.1602 25.6751 15.1465 28.1399 12.7967C28.1405 12.7967 29.682 11.5583 29.7626 9.57129ZM23.1963 3.34364C23.1963 3.34364 22.5512 0.93939 19.938 0.303723C19.938 0.303723 19.1854 0.112888 18.3858 0C18.3858 0 15.4648 3.76025 16.8847 17.9499C16.8927 18.0245 16.9317 18.0513 16.9666 18.0594C17.019 18.0735 17.0708 18.054 17.1057 18.0043C18.0424 16.651 22.3127 10.3198 23.1802 6.47023C23.1795 6.47023 23.6499 4.60624 23.1963 3.34364ZM19.1908 20.8635C19.1753 20.8944 19.1612 20.9703 19.2217 21.014C20.1645 21.69 23.025 23.6904 24.4038 24.0788C24.4038 24.0788 26.9512 24.9476 29.1653 21.1443C29.1653 21.1443 21.759 20.887 19.2963 20.801C19.2607 20.7996 19.211 20.8238 19.1908 20.8635ZM31.7886 12.4291C31.7886 12.4291 23.4086 16.9285 19.0772 19.8475C19.045 19.869 19.0053 19.9113 19.0268 19.9892C19.0383 20.0296 19.0772 20.0665 19.1296 20.0672C20.6805 20.0692 26.552 20.0766 26.6999 20.0491C26.6999 20.0491 27.4592 20.0181 28.3972 19.6586C28.3972 19.6586 30.4856 18.9954 31.5702 16.6234C31.5695 16.6228 32.5378 14.6882 31.7886 12.4291ZM12.9947 19.8475C8.66331 16.9285 0.284062 12.4291 0.284062 12.4291C-0.464494 14.6889 0.503118 16.6234 0.503118 16.6234C1.58765 18.9954 3.67608 19.6586 3.67608 19.6586C4.61412 20.0188 5.37276 20.0491 5.37276 20.0491C5.52126 20.0766 11.3921 20.0692 12.943 20.0672C12.9947 20.0665 13.0344 20.0302 13.0465 19.9892C13.0673 19.9113 13.0263 19.869 12.9947 19.8475ZM12.7763 20.801C10.3136 20.887 2.90736 21.1443 2.90736 21.1443C5.12078 24.9469 7.66949 24.0788 7.66949 24.0788C9.04767 23.6904 11.9082 21.69 12.8509 21.014C12.9101 20.971 12.8966 20.8944 12.8818 20.8635C12.8603 20.8238 12.8106 20.7996 12.7763 20.801ZM12.1339 0.303723C9.52139 0.93939 8.87632 3.34364 8.87632 3.34364C8.42208 4.60624 8.89245 6.47023 8.89245 6.47023C9.75994 10.3205 14.0302 16.6517 14.9669 18.0043C15.0018 18.054 15.0536 18.0735 15.106 18.0594C15.1409 18.0507 15.1806 18.0238 15.188 17.9499C16.6078 3.76025 13.6875 0 13.6875 0C12.8865 0.112888 12.1339 0.303723 12.1339 0.303723ZM4.90978 4.25682C4.90978 4.25682 2.13126 6.81091 2.30933 9.57129C2.39063 11.5583 3.93142 12.7973 3.93142 12.7973C6.39681 15.1472 12.2462 18.1609 13.6539 18.859C13.7117 18.8879 13.7675 18.8704 13.7977 18.8442C13.8421 18.8073 13.8347 18.7354 13.8158 18.6917C10.061 10.4959 4.90978 4.25682 4.90978 4.25682Z" fill="white"/>
</svg>
