<svg width="101" height="15" viewBox="0 0 101 15" fill="none" xmlns="http://www.w3.org/2000/svg">
<path d="M83.3965 0.466192L83.5901 11.4831H83.4933L80.2108 0.470283H74.8115V14.3416H78.3802L78.1866 2.95256H78.2834L81.8016 14.3416H86.9652V0.470283L83.3965 0.466192ZM15.432 0.466192L12.7344 14.4847H16.6398L18.6177 1.73391H18.7145L20.6461 14.4847H24.5009L21.8497 0.470283L15.432 0.466192ZM37.2353 0.466192L35.451 11.1559H35.3542L33.5699 0.470283H27.6908L27.4005 14.4847H31.0196L31.1164 1.87704H31.1627L33.5741 14.4847H37.2395L39.6509 1.87704H39.7477L39.8445 14.4847H43.4637L43.127 0.470283L37.2353 0.466192ZM6.65758 10.5016C6.76339 10.8357 6.77933 11.1905 6.70388 11.5322C6.60708 11.9984 6.27042 12.4686 5.30671 12.4686C4.38929 12.4686 3.85904 11.9534 3.85904 11.2009V9.84324H0V10.9228C0 14.0635 2.55446 15 5.26042 15C7.86117 15 10.0327 14.1085 10.3693 11.8103C10.5629 10.5916 10.4198 9.79826 10.3693 9.51609C9.696 6.56352 4.19571 5.71701 3.80854 4.07715C3.76116 3.82982 3.76116 3.57612 3.80854 3.32879C3.90533 2.8585 4.24621 2.38822 5.11313 2.38822C5.98004 2.38822 6.45979 2.90758 6.45979 3.65594V4.49836H10.079V3.5169C10.079 0.470282 7.23413 0 5.20992 0C2.65125 0 0.53025 0.842421 0.143083 3.09569C0.0164319 3.7159 0.0336838 4.35574 0.193583 4.96865C0.770125 7.87214 5.93375 8.71865 6.65758 10.4975M53.5889 10.4975C53.732 10.8247 53.6815 11.25 53.6352 11.5322C53.5384 11.9984 53.2018 12.4686 52.238 12.4686C51.3206 12.4686 50.7904 11.9534 50.7904 11.2009V9.84324H46.9313V10.9228C46.9313 14.0144 49.4395 14.9509 52.1413 14.9509C54.7462 14.9509 56.8672 14.1085 57.2039 11.7653C57.3975 10.5466 57.2544 9.79826 57.2039 9.46701C56.6273 6.56352 51.1733 5.67203 50.7904 4.07715C50.743 3.82982 50.743 3.57612 50.7904 3.32879C50.8872 2.8585 51.2238 2.38822 52.095 2.38822C52.9114 2.38822 53.4416 2.90758 53.4416 3.65594V4.49836H57.0103V3.5169C57.0103 0.470282 54.2118 0 52.1875 0C49.6331 0 47.5584 0.797437 47.1712 3.09569C47.0744 3.70502 47.0744 4.26526 47.2217 4.96865C47.7983 7.87214 52.8609 8.66957 53.5889 10.4975ZM65.7426 12.3746C66.7526 12.3746 67.0472 11.7203 67.1398 11.3441C67.1903 11.2009 67.1903 10.9678 67.1903 10.8288V0.466192H70.8515V10.5425C70.8515 10.8247 70.8515 11.34 70.8094 11.4831C70.5653 14.1044 68.4443 14.9468 65.7889 14.9468C63.1376 14.9468 61.0166 14.1044 60.7725 11.479C60.7725 11.34 60.7263 10.8247 60.7263 10.5425V0.466192H64.3875V10.8247C64.3875 11.0128 64.3875 11.1968 64.438 11.34C64.438 11.7121 64.7326 12.3705 65.7426 12.3705M95.8406 12.2315C96.9011 12.2315 97.2378 11.5772 97.3345 11.1968C97.3808 11.0578 97.3808 10.8247 97.3808 10.6816V8.66548H95.8869V6.60442H101V10.3544C101 10.6366 101 10.8247 100.954 11.295C100.71 13.8713 98.4413 14.7587 95.8869 14.7587C93.3324 14.7587 91.0641 13.8713 90.8243 11.2909C90.7738 10.8247 90.7738 10.6366 90.7738 10.3544V4.44929C90.7738 4.21619 90.8243 3.74591 90.8243 3.50872C91.1609 0.887404 93.3324 0.0449823 95.8869 0.0449823C98.4413 0.0449823 100.663 0.887402 100.95 3.51281C101 3.93402 101 4.44929 101 4.44929V4.91958H97.3808V4.12214C97.3808 4.12214 97.3808 3.79498 97.3345 3.60687C97.284 3.27972 96.9979 2.57633 95.8869 2.57633C94.8264 2.57633 94.5402 3.23064 94.4392 3.60687C94.3929 3.79089 94.3929 4.02808 94.3929 4.26118V10.6816C94.3929 10.8697 94.3929 11.0578 94.4392 11.1968C94.4392 11.5731 94.8264 12.2315 95.8406 12.2315Z" fill="white"/>
</svg>
