<svg width="20" height="24" viewBox="0 0 20 24" fill="none" xmlns="http://www.w3.org/2000/svg">
<g clip-path="url(#clip0_918_4511)">
<path d="M10 10C12.4853 10 14.5 7.98528 14.5 5.5C14.5 3.01472 12.4853 1 10 1C7.51472 1 5.5 3.01472 5.5 5.5C5.5 7.98528 7.51472 10 10 10Z" stroke="black" stroke-width="1.5" stroke-linecap="round" stroke-linejoin="round"/>
<path d="M18.5 23V20.3333C18.5 18.9188 18.0224 17.5623 17.1722 16.5621C16.3221 15.5619 15.169 15 13.9667 15H6.03333C4.83102 15 3.67795 15.5619 2.82778 16.5621C1.97762 17.5623 1.5 18.9188 1.5 20.3333V23" stroke="black" stroke-width="1.5" stroke-linecap="round" stroke-linejoin="round"/>
</g>
<defs>
<clipPath id="clip0_918_4511">
<rect width="19" height="24" fill="white" transform="translate(0.5)"/>
</clipPath>
</defs>
</svg>
